<mxfile host="app.diagrams.net" modified="2023-12-14T13:07:30.770Z" agent="Mozilla/5.0 (Windows NT 10.0; Win64; x64) AppleWebKit/537.36 (KHTML, like Gecko) Chrome/120.0.0.0 Safari/537.36" etag="E9HSLwbr8Y4hpStSOZSK" version="22.1.8" type="github">
  <diagram name="第 1 页" id="EeX_rejQWtDm-ab7zyp8">
    <mxGraphModel dx="982" dy="518" grid="1" gridSize="10" guides="1" tooltips="1" connect="1" arrows="1" fold="1" page="1" pageScale="1" pageWidth="827" pageHeight="1169" math="0" shadow="0">
      <root>
        <mxCell id="0" />
        <mxCell id="1" parent="0" />
        <mxCell id="qgKEdduDP3SCxEq1FxA4-24" value="" style="shape=connector;rounded=0;orthogonalLoop=1;jettySize=auto;html=1;labelBackgroundColor=default;strokeColor=default;align=center;verticalAlign=middle;fontFamily=Helvetica;fontSize=11;fontColor=default;endArrow=classic;" edge="1" parent="1">
          <mxGeometry relative="1" as="geometry">
            <mxPoint x="400" y="330" as="sourcePoint" />
            <mxPoint x="400" y="270" as="targetPoint" />
          </mxGeometry>
        </mxCell>
        <mxCell id="qgKEdduDP3SCxEq1FxA4-10" value="&lt;font style=&quot;font-size: 16px;&quot;&gt;安全程序的前向模拟&lt;/font&gt;" style="rounded=1;whiteSpace=wrap;html=1;fillColor=#f9f7ed;strokeColor=#36393d;" vertex="1" parent="1">
          <mxGeometry x="330" y="330" width="170" height="60" as="geometry" />
        </mxCell>
        <mxCell id="qgKEdduDP3SCxEq1FxA4-11" value="&lt;font style=&quot;font-size: 16px;&quot;&gt;安全程序的后向模拟&lt;/font&gt;" style="rounded=1;whiteSpace=wrap;html=1;fillColor=#f9f7ed;strokeColor=#36393d;" vertex="1" parent="1">
          <mxGeometry x="330" y="210" width="170" height="60" as="geometry" />
        </mxCell>
        <mxCell id="qgKEdduDP3SCxEq1FxA4-25" value="" style="shape=connector;rounded=0;orthogonalLoop=1;jettySize=auto;html=1;labelBackgroundColor=default;strokeColor=default;align=center;verticalAlign=middle;fontFamily=Helvetica;fontSize=11;fontColor=default;endArrow=classic;" edge="1" parent="1">
          <mxGeometry relative="1" as="geometry">
            <mxPoint x="430" y="270" as="sourcePoint" />
            <mxPoint x="430" y="330" as="targetPoint" />
          </mxGeometry>
        </mxCell>
        <mxCell id="qgKEdduDP3SCxEq1FxA4-26" value="&lt;font style=&quot;font-size: 16px;&quot;&gt;源程序是确定性的&lt;/font&gt;" style="text;html=1;strokeColor=none;fillColor=none;align=center;verticalAlign=middle;whiteSpace=wrap;rounded=0;fontSize=11;fontFamily=Helvetica;fontColor=default;" vertex="1" parent="1">
          <mxGeometry x="430" y="280" width="150" height="30" as="geometry" />
        </mxCell>
        <mxCell id="qgKEdduDP3SCxEq1FxA4-27" value="&lt;font style=&quot;font-size: 16px;&quot;&gt;目标程序是确定性的&lt;/font&gt;" style="text;html=1;strokeColor=none;fillColor=none;align=center;verticalAlign=middle;whiteSpace=wrap;rounded=0;fontSize=11;fontFamily=Helvetica;fontColor=default;" vertex="1" parent="1">
          <mxGeometry x="240" y="280" width="160" height="30" as="geometry" />
        </mxCell>
        <mxCell id="qgKEdduDP3SCxEq1FxA4-28" value="&lt;font style=&quot;font-size: 16px;&quot;&gt;安全程序的双向模拟&lt;/font&gt;" style="rounded=1;whiteSpace=wrap;html=1;fillColor=#fad9d5;strokeColor=#000000;" vertex="1" parent="1">
          <mxGeometry x="610" y="270" width="170" height="60" as="geometry" />
        </mxCell>
        <mxCell id="qgKEdduDP3SCxEq1FxA4-30" value="" style="shape=connector;rounded=0;orthogonalLoop=1;jettySize=auto;html=1;labelBackgroundColor=default;strokeColor=default;align=center;verticalAlign=middle;fontFamily=Helvetica;fontSize=11;fontColor=default;endArrow=classic;exitX=0;exitY=0.25;exitDx=0;exitDy=0;entryX=1;entryY=0.5;entryDx=0;entryDy=0;" edge="1" parent="1" source="qgKEdduDP3SCxEq1FxA4-28" target="qgKEdduDP3SCxEq1FxA4-11">
          <mxGeometry relative="1" as="geometry">
            <mxPoint x="410" y="340" as="sourcePoint" />
            <mxPoint x="410" y="280" as="targetPoint" />
          </mxGeometry>
        </mxCell>
        <mxCell id="qgKEdduDP3SCxEq1FxA4-31" value="" style="shape=connector;rounded=0;orthogonalLoop=1;jettySize=auto;html=1;labelBackgroundColor=default;strokeColor=default;align=center;verticalAlign=middle;fontFamily=Helvetica;fontSize=11;fontColor=default;endArrow=classic;exitX=0;exitY=0.75;exitDx=0;exitDy=0;entryX=1;entryY=0.5;entryDx=0;entryDy=0;" edge="1" parent="1" source="qgKEdduDP3SCxEq1FxA4-28" target="qgKEdduDP3SCxEq1FxA4-10">
          <mxGeometry relative="1" as="geometry">
            <mxPoint x="590" y="305" as="sourcePoint" />
            <mxPoint x="510" y="250" as="targetPoint" />
          </mxGeometry>
        </mxCell>
      </root>
    </mxGraphModel>
  </diagram>
</mxfile>
